<?xml version="1.0" encoding="UTF-8"?>
<svg xmlns="http://www.w3.org/2000/svg" xmlns:xlink="http://www.w3.org/1999/xlink" width="64pt" height="64pt" viewBox="0 0 64 64" version="1.1">
<g id="surface11097037">
<path style=" stroke:none;fill-rule:nonzero;fill:rgb(90.196078%,49.411765%,13.333333%);fill-opacity:1;" d="M 29.039062 8.019531 C 28.480469 8 28 8.460938 28 9.039062 L 28 13 C 28 13.558594 28.441406 14 29 14 L 29 14.039062 C 41.460938 14.519531 51.480469 24.539062 51.960938 37 L 52 37 C 52 37.558594 52.441406 38 53 38 L 56.960938 38 C 57.539062 38 58 37.519531 57.980469 36.960938 C 57.441406 21.242188 44.757812 8.558594 29.039062 8.019531 Z M 29.039062 18.019531 C 28.480469 18 28 18.480469 28 19.039062 L 28 23 C 28 23.558594 28.441406 24 29 24 L 29 24.058594 C 35.941406 24.519531 41.480469 30.058594 41.941406 37 L 42 37 C 42 37.558594 42.441406 38 43 38 L 46.960938 38 C 47.519531 38 48 37.519531 47.980469 36.960938 C 47.441406 26.761719 39.238281 18.558594 29.039062 18.019531 Z M 11 20 C 10.441406 20 10 20.441406 10 21 L 10 43 C 10 50.160156 15.839844 56 23 56 C 30.160156 56 36 50.160156 36 43 C 36 35.839844 30.160156 30 23 30 C 22.441406 30 22 30.441406 22 31 L 22 37 C 22 37.558594 22.441406 38 23 38 C 25.761719 38 28 40.238281 28 43 C 28 45.761719 25.761719 48 23 48 C 20.238281 48 18 45.761719 18 43 L 18 21 C 18 20.441406 17.558594 20 17 20 Z M 11 20 "/>
</g>
</svg>
